# xmcd
# 
# Track frame offsets:
#     150
#     17822
#     32471
#     46591
#     90073
#     104198
#     124941
#     150262
#     162536
#     182983
#     202885
#     215392
# 
# Disc length: 3038
# 
# Revision: 1
# Processed by: cddbd v1.5.2PL0 Copyright (c) Steve Scherf et al.
# Submitted via: fre:ac v1.0.17
# 
DISCID=910bdc0c
DTITLE=Van Morrison - Best Of Van Morrison
DYEAR=0
DGENRE=
TTITLE0=Spanish Rose
TTITLE1=Chick - A - Boom
TTITLE2=Domino
TTITLE3=T.B. Sheets
TTITLE4=Brown Eyed Girl
TTITLE5=Moon Dance
TTITLE6=Who Drove The Red Sportcar
TTITLE7=Midnight Special
TTITLE8=And It Stoned Me
TTITLE9=Sweet Thing
TTITLE10=Baby Please Don't Go
TTITLE11=Here Comes The Night
EXTD=
EXTT0=
EXTT1=
EXTT2=
EXTT3=
EXTT4=
EXTT5=
EXTT6=
EXTT7=
EXTT8=
EXTT9=
EXTT10=
EXTT11=
PLAYORDER=
